<svg xmlns="http://www.w3.org/2000/svg" width="642" height="582" fill="none" viewBox="0 0 642 582">
  <rect width="444.585" height="543.261" x="11" y="11" fill="#9EE871" stroke="#22272E" stroke-width="22" rx="27"/>
  <rect width="234.481" height="38.307" x="149.135" y="167.71" fill="#22272E" rx="19.153"/>
  <rect width="234.481" height="38.307" x="149.135" y="71.362" fill="#22272E" rx="19.153"/>
  <rect width="234.481" height="38.307" x="149.135" y="264.058" fill="#22272E" rx="19.153"/>
  <rect width="234.481" height="38.307" x="149.135" y="360.405" fill="#22272E" rx="19.153"/>
  <rect width="234.481" height="38.307" x="149.135" y="456.753" fill="#22272E" rx="19.153"/>
  <circle cx="102.122" cy="186.863" r="19.153" fill="#22272E"/>
  <circle cx="102.122" cy="90.516" r="19.153" fill="#22272E"/>
  <circle cx="102.122" cy="283.211" r="19.153" fill="#22272E"/>
  <circle cx="102.122" cy="379.559" r="19.153" fill="#22272E"/>
  <circle cx="102.122" cy="475.906" r="19.153" fill="#22272E"/>
  <mask id="a" width="300" height="264" x="305.897" y="230.449" fill="#000" maskUnits="userSpaceOnUse">
    <path fill="#fff" d="M305.897 230.449h300v264h-300z"/>
    <path fill-rule="evenodd" d="m503.978 434.26.025.025-29.349 29.349c-10.544 10.544-27.639 10.544-38.183 0l-29.349-29.349.047-.047-54.098-54.099-3.943-3.943c-28.308-28.309-28.308-74.206 0-102.515 28.309-28.309 74.205-28.309 102.514 0l3.942 3.943 3.943-3.943c28.309-28.309 74.205-28.309 102.514 0 28.308 28.309 28.308 74.206 0 102.515l-3.943 3.943-54.12 54.121Z" clip-rule="evenodd"/>
  </mask>
  <path fill="#BB71E8" fill-rule="evenodd" d="m503.978 434.26.025.025-29.349 29.349c-10.544 10.544-27.639 10.544-38.183 0l-29.349-29.349.047-.047-54.098-54.099-3.943-3.943c-28.308-28.309-28.308-74.206 0-102.515 28.309-28.309 74.205-28.309 102.514 0l3.942 3.943 3.943-3.943c28.309-28.309 74.205-28.309 102.514 0 28.308 28.309 28.308 74.206 0 102.515l-3.943 3.943-54.12 54.121Z" clip-rule="evenodd"/>
  <path fill="#22272E" d="m503.978 434.26-15.556-15.556-15.557 15.556 15.557 15.556 15.556-15.556Zm.025.025 15.556 15.556 15.556-15.557-15.556-15.556-15.556 15.557Zm-29.349 29.349-15.556-15.557 15.556 15.557Zm-38.183 0-15.557 15.556 15.557-15.556Zm-29.349-29.349-15.556-15.557-15.557 15.556 15.556 15.557 15.557-15.556Zm.047-.047 15.556 15.556 15.556-15.556-15.556-15.557-15.556 15.557Zm-54.098-54.099-15.556 15.556 15.556-15.556Zm-3.943-3.943 15.557-15.556-15.557 15.556Zm0-102.515-15.556-15.556 15.556 15.556Zm102.514 0 15.556-15.556-15.556 15.556Zm3.942 3.943-15.556 15.556 15.556 15.557 15.557-15.557-15.557-15.556Zm3.943-3.943-15.556-15.556 15.556 15.556Zm102.514 0-15.557 15.556 15.557-15.556Zm0 102.515 15.556 15.556-15.556-15.556Zm-3.943 3.943-15.557-15.556 15.557 15.556Zm-69.676 69.677.024.025 31.113-31.113-.025-.024-31.112 31.112Zm.024-31.088-29.348 29.349 31.113 31.113 29.348-29.349-31.113-31.113Zm-29.348 29.349a5 5 0 0 1-7.071.001l-31.113 31.112c19.136 19.136 50.161 19.136 69.297 0l-31.113-31.113Zm-7.071.001-29.349-29.35-31.113 31.113 29.349 29.349 31.113-31.112Zm-29.349 1.763.047-.047-31.113-31.113-.046.047 31.112 31.113Zm.047-31.16-54.097-54.098-31.113 31.112 54.097 54.099 31.113-31.113Zm-54.097-54.098-3.943-3.943-31.113 31.112 3.943 3.943 31.113-31.112Zm-3.943-3.943c-19.717-19.717-19.717-51.685 0-71.403l-31.113-31.112c-36.9 36.9-36.9 96.727 0 133.627l31.113-31.112Zm0-71.403c19.716-19.717 51.683-19.717 71.4 0l31.113-31.112c-36.9-36.901-96.726-36.901-133.626 0l31.113 31.112Zm71.4 0 3.943 3.943 31.113-31.112-3.943-3.943-31.113 31.112Zm35.056 3.943 3.943-3.943-31.113-31.112-3.943 3.943 31.113 31.112Zm3.943-3.943c19.716-19.717 51.684-19.717 71.4 0l31.113-31.112c-36.9-36.901-96.726-36.901-133.626 0l31.113 31.112Zm71.4 0c19.717 19.718 19.717 51.686 0 71.403l31.113 31.112c36.9-36.9 36.9-96.727 0-133.627l-31.113 31.112Zm0 71.403-3.943 3.943 31.113 31.112 3.943-3.943-31.113-31.112Zm-3.943 3.943-54.119 54.121 31.112 31.112 54.12-54.121-31.113-31.112Z" mask="url(#a)"/>
</svg>
