<?xml version="1.0" standalone="no"?>
<!DOCTYPE svg PUBLIC "-//W3C//DTD SVG 20010904//EN"
 "http://www.w3.org/TR/2001/REC-SVG-20010904/DTD/svg10.dtd">
<svg version="1.0" xmlns="http://www.w3.org/2000/svg"
 width="642.000000pt" height="642.000000pt" viewBox="0 0 642.000000 642.000000"
 preserveAspectRatio="xMidYMid meet">
<metadata>
Created by potrace 1.14, written by Peter Selinger 2001-2017
</metadata>
<g transform="translate(0.000000,642.000000) scale(0.100000,-0.100000)"
fill="#000000" stroke="none">
<path d="M254 6096 c-103 -38 -174 -103 -222 -204 l-27 -57 0 -2540 0 -2540
32 -65 c55 -111 142 -183 254 -210 75 -18 4023 -18 4089 0 124 34 219 121 265
245 16 42 19 82 21 255 1 113 2 208 3 211 1 4 21 13 46 20 25 7 45 17 45 21 0
4 8 8 18 8 9 0 30 10 47 23 60 44 1022 1013 1053 1060 81 122 144 272 158 376
3 25 8 55 11 66 6 28 4 189 -3 232 -3 20 -7 45 -8 57 -1 12 -5 26 -8 31 -3 6
-9 26 -13 45 -4 19 -24 73 -44 120 -203 472 -758 691 -1235 489 -37 -16 -69
-29 -70 -29 0 0 -1 469 -1 1042 0 997 -1 1046 -19 1106 -11 34 -23 62 -28 62
-4 0 -8 6 -8 14 0 17 -92 116 -108 116 -6 0 -12 3 -12 8 0 4 -14 13 -31 21
-97 43 -19 41 -2133 40 l-2011 0 -61 -23z"/>
</g>
</svg>
